<mxfile host="app.diagrams.net" modified="2023-08-04T11:14:37.116Z" agent="Mozilla/5.0 (X11; Ubuntu; Linux x86_64; rv:109.0) Gecko/20100101 Firefox/114.0" etag="Dgr7FvmDULsczu7uOeWH" version="21.6.6" type="device">
  <diagram name="Page-1" id="7CSKcOcUzHPlwSgcAuL9">
    <mxGraphModel dx="1360" dy="690" grid="1" gridSize="10" guides="1" tooltips="1" connect="1" arrows="1" fold="1" page="1" pageScale="1" pageWidth="827" pageHeight="1169" math="0" shadow="0">
      <root>
        <mxCell id="0" />
        <mxCell id="1" parent="0" />
        <mxCell id="uYIBqPDHM22QWvYTJYOg-4" value="" style="edgeStyle=orthogonalEdgeStyle;rounded=0;orthogonalLoop=1;jettySize=auto;html=1;" parent="1" source="uYIBqPDHM22QWvYTJYOg-1" target="uYIBqPDHM22QWvYTJYOg-3" edge="1">
          <mxGeometry relative="1" as="geometry" />
        </mxCell>
        <mxCell id="uYIBqPDHM22QWvYTJYOg-1" value="&lt;font size=&quot;3&quot; face=&quot;Times New Roman&quot;&gt;Начало&lt;/font&gt;" style="ellipse;whiteSpace=wrap;html=1;" parent="1" vertex="1">
          <mxGeometry x="354" y="50" width="120" height="80" as="geometry" />
        </mxCell>
        <mxCell id="uYIBqPDHM22QWvYTJYOg-8" value="" style="edgeStyle=orthogonalEdgeStyle;rounded=0;orthogonalLoop=1;jettySize=auto;html=1;entryX=0.5;entryY=0;entryDx=0;entryDy=0;" parent="1" source="uYIBqPDHM22QWvYTJYOg-2" target="RZJItfqRa4usGM5RJT65-2" edge="1">
          <mxGeometry relative="1" as="geometry">
            <mxPoint x="414" y="430" as="targetPoint" />
          </mxGeometry>
        </mxCell>
        <mxCell id="uYIBqPDHM22QWvYTJYOg-2" value="&lt;font style=&quot;font-size: 16px;&quot; face=&quot;Times New Roman&quot;&gt;int arr_size = array.Length;&lt;br&gt;&amp;nbsp;&amp;nbsp; &amp;nbsp;int correct_elements_number = 0;&lt;/font&gt;" style="rounded=0;whiteSpace=wrap;html=1;" parent="1" vertex="1">
          <mxGeometry x="212" y="260" width="404" height="120" as="geometry" />
        </mxCell>
        <mxCell id="uYIBqPDHM22QWvYTJYOg-5" value="" style="edgeStyle=orthogonalEdgeStyle;rounded=0;orthogonalLoop=1;jettySize=auto;html=1;" parent="1" source="uYIBqPDHM22QWvYTJYOg-3" target="uYIBqPDHM22QWvYTJYOg-2" edge="1">
          <mxGeometry relative="1" as="geometry" />
        </mxCell>
        <mxCell id="uYIBqPDHM22QWvYTJYOg-3" value="&lt;font style=&quot;font-size: 16px;&quot; face=&quot;Times New Roman&quot;&gt;array, word_size&lt;br&gt;&lt;/font&gt;" style="shape=parallelogram;perimeter=parallelogramPerimeter;whiteSpace=wrap;html=1;fixedSize=1;" parent="1" vertex="1">
          <mxGeometry x="341" y="170" width="146" height="60" as="geometry" />
        </mxCell>
        <mxCell id="uYIBqPDHM22QWvYTJYOg-21" style="edgeStyle=orthogonalEdgeStyle;rounded=0;orthogonalLoop=1;jettySize=auto;html=1;exitX=0.963;exitY=0.494;exitDx=0;exitDy=0;entryX=0.5;entryY=0;entryDx=0;entryDy=0;exitPerimeter=0;" parent="1" edge="1">
          <mxGeometry relative="1" as="geometry">
            <Array as="points">
              <mxPoint x="590" y="619" />
              <mxPoint x="590" y="710" />
              <mxPoint x="414" y="710" />
            </Array>
            <mxPoint x="472.33799999999997" y="619.2800000000002" as="sourcePoint" />
          </mxGeometry>
        </mxCell>
        <mxCell id="uYIBqPDHM22QWvYTJYOg-28" value="&lt;font style=&quot;font-size: 16px;&quot; face=&quot;Times New Roman&quot;&gt;Нет&lt;/font&gt;" style="text;html=1;align=center;verticalAlign=middle;resizable=0;points=[];autosize=1;strokeColor=none;fillColor=none;" parent="1" vertex="1">
          <mxGeometry x="170" y="620" width="50" height="30" as="geometry" />
        </mxCell>
        <mxCell id="uYIBqPDHM22QWvYTJYOg-38" value="&lt;font face=&quot;Times New Roman&quot;&gt;&lt;font style=&quot;font-size: 16px;&quot;&gt;correct_elements_number&lt;/font&gt;++&lt;/font&gt;" style="rounded=0;whiteSpace=wrap;html=1;" parent="1" vertex="1">
          <mxGeometry x="490" y="740" width="220" height="60" as="geometry" />
        </mxCell>
        <mxCell id="uYIBqPDHM22QWvYTJYOg-46" value="&lt;font style=&quot;font-size: 16px;&quot; face=&quot;Times New Roman&quot;&gt;result_array&lt;/font&gt;" style="shape=document;whiteSpace=wrap;html=1;boundedLbl=1;" parent="1" vertex="1">
          <mxGeometry x="680" y="1150" width="120" height="80" as="geometry" />
        </mxCell>
        <mxCell id="uYIBqPDHM22QWvYTJYOg-49" value="&lt;font style=&quot;font-size: 16px;&quot;&gt;Да&lt;/font&gt;" style="text;html=1;align=center;verticalAlign=middle;resizable=0;points=[];autosize=1;strokeColor=none;fillColor=none;" parent="1" vertex="1">
          <mxGeometry x="630" y="627.5" width="40" height="30" as="geometry" />
        </mxCell>
        <mxCell id="RZJItfqRa4usGM5RJT65-1" value="&lt;font size=&quot;3&quot;&gt;Метод string[] filter_string_arr( string[] array, int word_size)&lt;br&gt;&lt;/font&gt;" style="rounded=0;whiteSpace=wrap;html=1;" parent="1" vertex="1">
          <mxGeometry x="80" width="700" height="40" as="geometry" />
        </mxCell>
        <mxCell id="RZJItfqRa4usGM5RJT65-2" value="&lt;font style=&quot;font-size: 16px;&quot; face=&quot;Times New Roman&quot;&gt;for (int index = 0; index &amp;lt; arr_size; index++)&lt;/font&gt;" style="shape=hexagon;perimeter=hexagonPerimeter2;whiteSpace=wrap;html=1;fixedSize=1;" parent="1" vertex="1">
          <mxGeometry x="254.5" y="420" width="319" height="90" as="geometry" />
        </mxCell>
        <mxCell id="32sflzjFphWox1otLnrq-5" style="edgeStyle=orthogonalEdgeStyle;rounded=0;orthogonalLoop=1;jettySize=auto;html=1;exitX=1;exitY=0.5;exitDx=0;exitDy=0;entryX=0.5;entryY=0;entryDx=0;entryDy=0;" edge="1" parent="1" source="32sflzjFphWox1otLnrq-1" target="uYIBqPDHM22QWvYTJYOg-38">
          <mxGeometry relative="1" as="geometry" />
        </mxCell>
        <mxCell id="32sflzjFphWox1otLnrq-13" style="edgeStyle=orthogonalEdgeStyle;rounded=0;orthogonalLoop=1;jettySize=auto;html=1;exitX=0;exitY=0.5;exitDx=0;exitDy=0;" edge="1" parent="1" source="32sflzjFphWox1otLnrq-1">
          <mxGeometry relative="1" as="geometry">
            <mxPoint x="274.5" y="640" as="sourcePoint" />
            <mxPoint x="400" y="838" as="targetPoint" />
            <Array as="points">
              <mxPoint x="279" y="641" />
              <mxPoint x="255" y="641" />
              <mxPoint x="255" y="838" />
            </Array>
          </mxGeometry>
        </mxCell>
        <mxCell id="32sflzjFphWox1otLnrq-1" value="&lt;font style=&quot;font-size: 16px;&quot; face=&quot;Times New Roman&quot;&gt;array[index].Length &amp;lt;= word_size?&lt;/font&gt;" style="rhombus;whiteSpace=wrap;html=1;" vertex="1" parent="1">
          <mxGeometry x="279" y="570" width="270" height="145" as="geometry" />
        </mxCell>
        <mxCell id="32sflzjFphWox1otLnrq-2" value="" style="endArrow=classic;html=1;rounded=0;exitX=0.5;exitY=1;exitDx=0;exitDy=0;" edge="1" parent="1" source="RZJItfqRa4usGM5RJT65-2">
          <mxGeometry width="50" height="50" relative="1" as="geometry">
            <mxPoint x="414" y="530" as="sourcePoint" />
            <mxPoint x="414" y="570" as="targetPoint" />
          </mxGeometry>
        </mxCell>
        <mxCell id="32sflzjFphWox1otLnrq-6" value="" style="endArrow=none;html=1;rounded=0;" edge="1" parent="1">
          <mxGeometry width="50" height="50" relative="1" as="geometry">
            <mxPoint x="400" y="900" as="sourcePoint" />
            <mxPoint x="400" y="840" as="targetPoint" />
          </mxGeometry>
        </mxCell>
        <mxCell id="32sflzjFphWox1otLnrq-14" value="" style="endArrow=classic;html=1;rounded=0;" edge="1" parent="1">
          <mxGeometry width="50" height="50" relative="1" as="geometry">
            <mxPoint x="470" y="840" as="sourcePoint" />
            <mxPoint x="400" y="840" as="targetPoint" />
          </mxGeometry>
        </mxCell>
        <mxCell id="32sflzjFphWox1otLnrq-17" value="" style="endArrow=none;html=1;rounded=0;" edge="1" parent="1">
          <mxGeometry width="50" height="50" relative="1" as="geometry">
            <mxPoint x="600" y="840" as="sourcePoint" />
            <mxPoint x="599.5" y="800" as="targetPoint" />
          </mxGeometry>
        </mxCell>
        <mxCell id="32sflzjFphWox1otLnrq-18" value="" style="endArrow=none;html=1;rounded=0;" edge="1" parent="1">
          <mxGeometry width="50" height="50" relative="1" as="geometry">
            <mxPoint x="600" y="840" as="sourcePoint" />
            <mxPoint x="459" y="840" as="targetPoint" />
          </mxGeometry>
        </mxCell>
        <mxCell id="32sflzjFphWox1otLnrq-20" value="" style="endArrow=none;html=1;rounded=0;" edge="1" parent="1">
          <mxGeometry width="50" height="50" relative="1" as="geometry">
            <mxPoint x="70" y="900" as="sourcePoint" />
            <mxPoint x="400" y="900" as="targetPoint" />
          </mxGeometry>
        </mxCell>
        <mxCell id="32sflzjFphWox1otLnrq-21" value="" style="endArrow=none;html=1;rounded=0;" edge="1" parent="1">
          <mxGeometry width="50" height="50" relative="1" as="geometry">
            <mxPoint x="70" y="900" as="sourcePoint" />
            <mxPoint x="70" y="830" as="targetPoint" />
          </mxGeometry>
        </mxCell>
        <mxCell id="32sflzjFphWox1otLnrq-23" value="" style="endArrow=none;html=1;rounded=0;" edge="1" parent="1">
          <mxGeometry width="50" height="50" relative="1" as="geometry">
            <mxPoint x="70" y="830" as="sourcePoint" />
            <mxPoint x="70" y="470" as="targetPoint" />
          </mxGeometry>
        </mxCell>
        <mxCell id="32sflzjFphWox1otLnrq-39" style="edgeStyle=orthogonalEdgeStyle;rounded=0;orthogonalLoop=1;jettySize=auto;html=1;exitX=1;exitY=0.5;exitDx=0;exitDy=0;entryX=-0.044;entryY=0.407;entryDx=0;entryDy=0;entryPerimeter=0;" edge="1" parent="1" source="32sflzjFphWox1otLnrq-27" target="uYIBqPDHM22QWvYTJYOg-46">
          <mxGeometry relative="1" as="geometry" />
        </mxCell>
        <mxCell id="32sflzjFphWox1otLnrq-27" value="&lt;font style=&quot;font-size: 16px;&quot; face=&quot;Times New Roman&quot;&gt;for (int index = 0; index &amp;lt; arr_size; index++)&lt;/font&gt;" style="shape=hexagon;perimeter=hexagonPerimeter2;whiteSpace=wrap;html=1;fixedSize=1;" vertex="1" parent="1">
          <mxGeometry x="240" y="1140" width="319" height="90" as="geometry" />
        </mxCell>
        <mxCell id="32sflzjFphWox1otLnrq-28" value="" style="endArrow=classic;html=1;rounded=0;" edge="1" parent="1">
          <mxGeometry width="50" height="50" relative="1" as="geometry">
            <mxPoint x="70" y="470" as="sourcePoint" />
            <mxPoint x="254.5" y="470.41" as="targetPoint" />
          </mxGeometry>
        </mxCell>
        <mxCell id="32sflzjFphWox1otLnrq-38" style="edgeStyle=orthogonalEdgeStyle;rounded=0;orthogonalLoop=1;jettySize=auto;html=1;exitX=0.5;exitY=1;exitDx=0;exitDy=0;entryX=0.5;entryY=0;entryDx=0;entryDy=0;" edge="1" parent="1" source="32sflzjFphWox1otLnrq-29" target="32sflzjFphWox1otLnrq-27">
          <mxGeometry relative="1" as="geometry" />
        </mxCell>
        <mxCell id="32sflzjFphWox1otLnrq-29" value="&lt;font style=&quot;font-size: 16px;&quot; face=&quot;Times New Roman&quot;&gt;string[] result_array = new string[correct_elements_number];&lt;br&gt;&amp;nbsp;&amp;nbsp; &amp;nbsp;int second_index = 0;&lt;/font&gt;" style="rounded=0;whiteSpace=wrap;html=1;" vertex="1" parent="1">
          <mxGeometry x="176.75" y="1020" width="445.5" height="60" as="geometry" />
        </mxCell>
        <mxCell id="32sflzjFphWox1otLnrq-32" value="" style="endArrow=classic;html=1;rounded=0;" edge="1" parent="1">
          <mxGeometry width="50" height="50" relative="1" as="geometry">
            <mxPoint x="399" y="960" as="sourcePoint" />
            <mxPoint x="398.90999999999997" y="1020" as="targetPoint" />
          </mxGeometry>
        </mxCell>
        <mxCell id="32sflzjFphWox1otLnrq-33" value="" style="endArrow=none;html=1;rounded=0;" edge="1" parent="1">
          <mxGeometry width="50" height="50" relative="1" as="geometry">
            <mxPoint x="400" y="960" as="sourcePoint" />
            <mxPoint x="490" y="960" as="targetPoint" />
          </mxGeometry>
        </mxCell>
        <mxCell id="32sflzjFphWox1otLnrq-34" value="" style="endArrow=none;html=1;rounded=0;" edge="1" parent="1">
          <mxGeometry width="50" height="50" relative="1" as="geometry">
            <mxPoint x="490" y="960" as="sourcePoint" />
            <mxPoint x="760" y="960" as="targetPoint" />
          </mxGeometry>
        </mxCell>
        <mxCell id="32sflzjFphWox1otLnrq-35" value="" style="endArrow=none;html=1;rounded=0;" edge="1" parent="1">
          <mxGeometry width="50" height="50" relative="1" as="geometry">
            <mxPoint x="570" y="470" as="sourcePoint" />
            <mxPoint x="760" y="470" as="targetPoint" />
          </mxGeometry>
        </mxCell>
        <mxCell id="32sflzjFphWox1otLnrq-36" value="" style="endArrow=none;html=1;rounded=0;" edge="1" parent="1">
          <mxGeometry width="50" height="50" relative="1" as="geometry">
            <mxPoint x="760" y="960" as="sourcePoint" />
            <mxPoint x="760" y="470" as="targetPoint" />
          </mxGeometry>
        </mxCell>
        <mxCell id="32sflzjFphWox1otLnrq-53" value="" style="endArrow=classic;html=1;rounded=0;" edge="1" parent="1">
          <mxGeometry width="50" height="50" relative="1" as="geometry">
            <mxPoint x="50" y="1190" as="sourcePoint" />
            <mxPoint x="234.5" y="1190.41" as="targetPoint" />
          </mxGeometry>
        </mxCell>
        <mxCell id="32sflzjFphWox1otLnrq-54" value="" style="endArrow=none;html=1;rounded=0;" edge="1" parent="1">
          <mxGeometry width="50" height="50" relative="1" as="geometry">
            <mxPoint x="50" y="1550" as="sourcePoint" />
            <mxPoint x="50" y="1190" as="targetPoint" />
          </mxGeometry>
        </mxCell>
        <mxCell id="32sflzjFphWox1otLnrq-55" value="" style="endArrow=none;html=1;rounded=0;" edge="1" parent="1">
          <mxGeometry width="50" height="50" relative="1" as="geometry">
            <mxPoint x="50" y="1620" as="sourcePoint" />
            <mxPoint x="50" y="1550" as="targetPoint" />
          </mxGeometry>
        </mxCell>
        <mxCell id="32sflzjFphWox1otLnrq-56" value="" style="endArrow=none;html=1;rounded=0;" edge="1" parent="1">
          <mxGeometry width="50" height="50" relative="1" as="geometry">
            <mxPoint x="50" y="1620" as="sourcePoint" />
            <mxPoint x="380" y="1620" as="targetPoint" />
          </mxGeometry>
        </mxCell>
        <mxCell id="32sflzjFphWox1otLnrq-57" value="" style="endArrow=none;html=1;rounded=0;" edge="1" parent="1">
          <mxGeometry width="50" height="50" relative="1" as="geometry">
            <mxPoint x="380" y="1620" as="sourcePoint" />
            <mxPoint x="380" y="1560" as="targetPoint" />
          </mxGeometry>
        </mxCell>
        <mxCell id="32sflzjFphWox1otLnrq-58" value="" style="endArrow=none;html=1;rounded=0;" edge="1" parent="1">
          <mxGeometry width="50" height="50" relative="1" as="geometry">
            <mxPoint x="580" y="1560" as="sourcePoint" />
            <mxPoint x="439" y="1560" as="targetPoint" />
          </mxGeometry>
        </mxCell>
        <mxCell id="32sflzjFphWox1otLnrq-59" value="" style="endArrow=classic;html=1;rounded=0;" edge="1" parent="1">
          <mxGeometry width="50" height="50" relative="1" as="geometry">
            <mxPoint x="450" y="1560" as="sourcePoint" />
            <mxPoint x="380" y="1560" as="targetPoint" />
          </mxGeometry>
        </mxCell>
        <mxCell id="32sflzjFphWox1otLnrq-60" style="edgeStyle=orthogonalEdgeStyle;rounded=0;orthogonalLoop=1;jettySize=auto;html=1;exitX=0;exitY=0.5;exitDx=0;exitDy=0;" edge="1" source="32sflzjFphWox1otLnrq-61" parent="1">
          <mxGeometry relative="1" as="geometry">
            <mxPoint x="254.5" y="1360" as="sourcePoint" />
            <mxPoint x="380" y="1558" as="targetPoint" />
            <Array as="points">
              <mxPoint x="259" y="1361" />
              <mxPoint x="235" y="1361" />
              <mxPoint x="235" y="1558" />
            </Array>
          </mxGeometry>
        </mxCell>
        <mxCell id="32sflzjFphWox1otLnrq-61" value="&lt;font style=&quot;font-size: 16px;&quot; face=&quot;Times New Roman&quot;&gt;array[index].Length &amp;lt;= word_size?&lt;/font&gt;" style="rhombus;whiteSpace=wrap;html=1;" vertex="1" parent="1">
          <mxGeometry x="259" y="1290" width="270" height="145" as="geometry" />
        </mxCell>
        <mxCell id="32sflzjFphWox1otLnrq-62" value="&lt;font style=&quot;font-size: 16px;&quot; face=&quot;Times New Roman&quot;&gt;result_array[second_index] = array[index]; &lt;br&gt;&amp;nbsp;&amp;nbsp; &amp;nbsp;&amp;nbsp;&amp;nbsp; &amp;nbsp;&amp;nbsp;&amp;nbsp; &amp;nbsp;second_index++;&lt;/font&gt;" style="rounded=0;whiteSpace=wrap;html=1;" vertex="1" parent="1">
          <mxGeometry x="420" y="1460" width="320" height="60" as="geometry" />
        </mxCell>
        <mxCell id="32sflzjFphWox1otLnrq-63" style="edgeStyle=orthogonalEdgeStyle;rounded=0;orthogonalLoop=1;jettySize=auto;html=1;exitX=1;exitY=0.5;exitDx=0;exitDy=0;entryX=0.5;entryY=0;entryDx=0;entryDy=0;" edge="1" source="32sflzjFphWox1otLnrq-61" target="32sflzjFphWox1otLnrq-62" parent="1">
          <mxGeometry relative="1" as="geometry" />
        </mxCell>
        <mxCell id="32sflzjFphWox1otLnrq-64" value="&lt;font style=&quot;font-size: 16px;&quot;&gt;Да&lt;/font&gt;" style="text;html=1;align=center;verticalAlign=middle;resizable=0;points=[];autosize=1;strokeColor=none;fillColor=none;" vertex="1" parent="1">
          <mxGeometry x="610" y="1347.5" width="40" height="30" as="geometry" />
        </mxCell>
        <mxCell id="32sflzjFphWox1otLnrq-65" value="&lt;font style=&quot;font-size: 16px;&quot; face=&quot;Times New Roman&quot;&gt;Нет&lt;/font&gt;" style="text;html=1;align=center;verticalAlign=middle;resizable=0;points=[];autosize=1;strokeColor=none;fillColor=none;" vertex="1" parent="1">
          <mxGeometry x="150" y="1340" width="50" height="30" as="geometry" />
        </mxCell>
        <mxCell id="32sflzjFphWox1otLnrq-66" value="" style="endArrow=classic;html=1;rounded=0;exitX=0.5;exitY=1;exitDx=0;exitDy=0;" edge="1" parent="1">
          <mxGeometry width="50" height="50" relative="1" as="geometry">
            <mxPoint x="394" y="1230" as="sourcePoint" />
            <mxPoint x="394" y="1290" as="targetPoint" />
          </mxGeometry>
        </mxCell>
        <mxCell id="32sflzjFphWox1otLnrq-67" value="" style="endArrow=classic;html=1;rounded=0;" edge="1" parent="1">
          <mxGeometry width="50" height="50" relative="1" as="geometry">
            <mxPoint x="579.41" y="1520" as="sourcePoint" />
            <mxPoint x="579" y="1560" as="targetPoint" />
          </mxGeometry>
        </mxCell>
      </root>
    </mxGraphModel>
  </diagram>
</mxfile>
